# xmcd
#
# Track frame offsets: 
#        150
#        17965
#        34848
#        48555
#        65113
#        77758
#        94588
#        114248
#        133063
#        152108
#        165170
#
# Disc length: 2504 seconds
#
# Revision: 3
# Processed by: cddbd v1.5.1PL2 Copyright (c) Steve Scherf et al.
# Submitted via: ExactAudioCopy v0.95b3
#
DISCID=8909c60b
DTITLE=Ellis Paul - Say Something
DYEAR=1993
DGENRE=Folk
TTITLE0=Conversation with a Ghost
TTITLE1=Look at the Wind Blow
TTITLE2=Just the Jester Fool
TTITLE3=Angel
TTITLE4=Thin Man
TTITLE5=Washington D.C. 5/91
TTITLE6=New Light on your Halo
TTITLE7=Friday Night
TTITLE8=Blizzard
TTITLE9=Jumpin' a Train
TTITLE10=Say Something
EXTD=
EXTT0=
EXTT1=
EXTT2=
EXTT3=
EXTT4=
EXTT5=
EXTT6=
EXTT7=
EXTT8=
EXTT9=
EXTT10=
PLAYORDER=
